<?xml version="1.0" encoding="UTF-8"?>
<svg enable-background="new 0 0 409.313 353.413" viewBox="0 0 409.313 353.413" xmlns="http://www.w3.org/2000/svg">
 <path d="m300.525,73.652-7.91-32.672-4.523-18.687c-1.235-5.103-1.757-4.47-6.269-7.175-7.37-4.418-15.699-8.865-23.161-3.279-8.074,6.045-15.175,12.117-17.719,22.287-2.393,9.558 3.434,17.564-4.722,25.956-5.923,6.094-17.614,11.669-26.317,11.188-18.484-1.022-44.214-5.763-41.584-29.511 1.109-10.019-2.992-18.532-10.591-24.869-7.731-6.447-11.884-10.68-21.965-6.644-3.968,1.589-7.383,4.366-11.21,5.899-3.652,1.462-3.284,5.744-4.12,9.447l-9.371,41.508c-.639,2.831-1.844,4.173.418,5.974l16.653,13.256c6.127,4.877 8.673,8.566 16.158,8.536l81.002-.323 53.964-.215c1.713-.007 6.445.908 7.544-.648 4.213-5.97 11.566-13.162 13.723-20.028" fill="#fff"/>
 <path d="m300.525,73.652-7.91-32.672-4.523-18.687c-1.235-5.103-1.757-4.47-6.269-7.175-7.37-4.418-15.699-8.865-23.161-3.279-8.074,6.045-15.175,12.117-17.719,22.287-2.393,9.558 3.434,17.564-4.722,25.956-5.923,6.094-17.614,11.669-26.317,11.188-18.484-1.022-44.214-5.763-41.584-29.511 1.109-10.019-2.992-18.532-10.591-24.869-7.731-6.447-11.884-10.68-21.965-6.644-3.968,1.589-7.383,4.366-11.21,5.899-3.652,1.462-3.284,5.744-4.12,9.447l-9.371,41.508c-.639,2.831-1.844,4.173.418,5.974l16.653,13.256c6.127,4.877 8.673,8.566 16.158,8.536l81.002-.323 53.037-.211c1.088-.004 7.466.771 8.146-.193l14.048-19.899" fill="none" stroke="#000" stroke-linecap="square" stroke-miterlimit="10"/>
 <path d="m199.058,110.225c-5.099-4.654-14.684-4.43-21.091-3.632-7.677.956-15.983.092-23.721.092-7.932,0-16.292.227-24.169-.649-3.401-.378-22.131-2.071-14.196-8.788-7.104,4.433-25.638,3.099-24.778-8.261-5.799,1.925-12.277,2.417-18.291,1.181-4.068-.836-16.061-4.475-11.205-10.617-5.404-.338-36.959-3.342-25.365-15.338-10.735-1.381-25.928-7.029-33.65-14.77-7.025-7.042 5.456-7.648 10.717-7.648 8.103,0 15.96.535 24.108,0 30.748-2.019 57.589-11.093 84.95-24.775-8.499,10.742 18.455,10.097 23.009,8.258 0,7.013 3.556,17.3 12.974,12.979 1.874,14.979 6.35,25.644 19.569,33.908 10.352,6.472 27.162,7.563 37.918,5.768 12.709-2.121 26.029-9.573 31-21.978 1.182-2.949 2.176-6.27 2.597-9.425l.881-6.604c.158-1.188 3.261-.151 4.196-.49 5.951-2.156 11.352-5.084 8.849-12.977 7.422,1.308 27.368,4.455 23.597-8.849 13.217,6.608 26.313,12.557 40.244,17.534 13.697,4.894 29.396,5.841 43.767,7.208 5.196.494 41.708-2.231 37.51,6.523-1.855,3.868-13.034,9.308-17.107,10.323-6.229,1.553-11.882,4.323-18.287,5.605 11.613,12.333-19.901,14.995-25.365,15.335 4.71,5.962-6.979,9.931-11.153,10.528-6.649.951-12.42.541-18.937-1.089 5.133,11.206-18.83,11.611-24.184,8.258 6.203,8.006-10.827,8.418-15.336,8.849-9.387.896-19.478,1.666-28.908,1.181-8.618-.443-17.161-.59-25.81-.59-4.024,0-7.482.658-11.354,1.771-4.492,1.293-7.685,1.474-12.979,1.179" fill="#fff"/>
 <path d="m199.058,110.225c-5.099-4.654-14.684-4.43-21.091-3.632-7.677.956-15.983.092-23.721.092-7.932,0-16.292.227-24.169-.649-3.401-.378-22.131-2.071-14.196-8.788-7.104,4.433-25.638,3.099-24.778-8.261-5.799,1.925-12.277,2.417-18.291,1.181-4.068-.836-16.061-4.475-11.205-10.617-5.404-.338-36.959-3.342-25.365-15.338-10.735-1.381-25.928-7.029-33.65-14.77-7.025-7.042 5.456-7.648 10.717-7.648 8.103,0 15.96.535 24.108,0 30.748-2.019 57.589-11.093 84.95-24.775-8.499,10.742 18.455,10.097 23.009,8.258 0,7.013 3.556,17.3 12.974,12.979 1.874,14.979 6.35,25.644 19.569,33.908 10.352,6.472 27.162,7.563 37.918,5.768 12.709-2.121 26.029-9.573 31-21.978 1.182-2.949 2.176-6.27 2.597-9.425l.881-6.604c.158-1.188 3.261-.151 4.196-.49 5.951-2.156 11.352-5.084 8.849-12.977 7.422,1.308 27.368,4.455 23.597-8.849 13.217,6.608 26.313,12.557 40.244,17.534 13.697,4.894 29.396,5.841 43.767,7.208 5.196.494 41.708-2.231 37.51,6.523-1.855,3.868-13.034,9.308-17.107,10.323-6.229,1.553-11.882,4.323-18.287,5.605 11.613,12.333-19.901,14.995-25.365,15.335 4.71,5.962-6.979,9.931-11.153,10.528-6.649.951-12.42.541-18.937-1.089 5.133,11.206-18.83,11.611-24.184,8.258 6.203,8.006-10.827,8.418-15.336,8.849-9.387.896-19.478,1.666-28.908,1.181-8.618-.443-17.161-.59-25.81-.59-4.024,0-7.482.658-11.354,1.771-4.492,1.293-7.685,1.474-12.979,1.179" fill="none" stroke="#000" stroke-linecap="square" stroke-miterlimit="10"/>
 <path d="m196.11 268.32c3.126-1.263 6.64-6.946 10.03-9.439 4.583-3.37 10.376-7.246 15.358-9.745 6.35-3.184 12.519-5.938 17.105-11.666 3.031-3.786 9.62-14.574 1.778-14.574h-13.931c0.594 0-4.352 8.137-4.977 8.849-4.678 5.328-10.921 8.559-17.104 11.799-13.954 7.312-22.421 16.963-22.421 33.036 3.222-1.676 14.073-5.793 14.162-8.26" fill="#fff"/>
 <path d="m225.6 222.31c2.313 11.942-17.959 18.432-25.366 23.006-12.078 7.46-18.291 17.351-18.291 31.268" fill="none" stroke="#000" stroke-linecap="square" stroke-miterlimit="10"/>
 <path d="m196.11 268.32c3.105-1.255 5.718-6.566 9.146-8.85 4.482-2.987 11.007-5.403 14.748-9.145 4.47-4.47 11.511-5.608 16.243-10.345 4.868-4.873 7.645-10.205 7.645-17.086" fill="none" stroke="#000" stroke-linecap="square" stroke-miterlimit="10"/>
 <path d="m197.29 307.26c0.712-6.004 6.506-11.222 10.617-15.336l-10.044-4.759c-2.137-1.013-5.097 3.59-6.472 5.347-3.262 4.169-6.914 9.814-6.493 15.338l12.392-0.59" fill="#fff"/>
 <path d="m197.29 307.26c0.712-6.004 6.506-11.222 10.617-15.336l-10.044-4.759c-2.137-1.013-5.097 3.59-6.472 5.347-3.262 4.169-6.914 9.814-6.493 15.338" fill="none" stroke="#000" stroke-linecap="square" stroke-miterlimit="10"/>
 <path d="m207.906,315.518c5.676-.518 12.341-5.957 14.161-11.211 1.751-5.054.422-4.342-4.726-5.813l-14.541-4.155c-.332-.095-6.616,13.002-6.105,14.689 .759,2.508 11.361,6.417 11.211,6.49" fill="#fff"/>
 <path d="m207.91 315.52c6.55-0.598 15.768-8.497 15.336-15.338" fill="none" stroke="#000" stroke-linecap="square" stroke-miterlimit="10"/>
 <path d="m350.667,44.156c12.466,3.113 24.666,2.95 37.313,2.95 2.329,0 16.045-2.164 16.367.587 .396,3.387-11.298,7.928-13.567,8.849-11.063,4.487-20.576,4.131-32.465,4.131-5.813,0-12.261-1.983-17.964-3.125-4.659-.933-12.445-1.708-16.23-4.543" fill="none" stroke="#000" stroke-linecap="square" stroke-miterlimit="10"/>
 <path d="m308.192,62.441c7.107,5.286 17.137,7.828 25.368,10.914 5.941,2.227 18.847,4.44 25.072,2.36 2.845-.951 10.205-1.401 11.501-5.013 .936-2.608-.976-5.312-4.128-5.312-9.589,0-18.294-2.105-27.729-3.538" fill="none" stroke="#000" stroke-linecap="square" stroke-miterlimit="10"/>
 <path d="m305.831,68.931c4.24,2.743 35.136,10.964 34.808,14.748-.7,8.075-24.103.172-28.315-1.178" fill="none" stroke="#000" stroke-linecap="square" stroke-miterlimit="10"/>
 <path d="m286.96 74.83c6.492 3.259 24.185 7.255 24.185 16.518 0 10.405-30.345-2.253-34.214-4.72" fill="none" stroke="#000" stroke-linecap="square" stroke-miterlimit="10"/>
 <path d="m268.67 88.4c3.461 2.6 25.578 9.653 16.517 14.158-10.264 5.102-24.462-6.213-32.445-11.208" fill="none" stroke="#000" stroke-linecap="square" stroke-miterlimit="10"/>
 <path d="m298.76 26.458c6.518 3.26 13.389 5.362 20.054 8.258 3.956 1.719 12.691 5.241 5.898 8.849-12.48 6.628-36.115-5.489-47.78-10.03" fill="none" stroke="#000" stroke-linecap="square" stroke-miterlimit="10"/>
 <path d="m286.36 41.207c4.991 2.868 11.294 4.164 16.517 6.487 3.805 1.692 11.995 4.455 5.016 6.785-11.809 3.942-27.778-7.147-37.461-12.684" fill="none" stroke="#000" stroke-linecap="square" stroke-miterlimit="10"/>
 <path d="m262.77 43.566c4.735 2.537 33.563 13.385 32.446 19.466-2.026 11.032-29.997-8.583-33.627-10.617" fill="none" stroke="#000" stroke-linecap="square" stroke-miterlimit="10"/>
 <path d="m263.36 59.492c3.312 3.629 7.667 6.491 11.208 10.03 2.348 2.346 5.141 4.624 1.766 5.899-6.796 2.568-19.513-9.59-23.597-13.567" fill="none" stroke="#000" stroke-linecap="square" stroke-miterlimit="10"/>
 <path d="m247.43 64.803c1.842 3.47 16.872 12.927 13.566 17.107-3.147 3.981-12.935-3.563-15.929-5.309" fill="none" stroke="#000" stroke-linecap="square" stroke-miterlimit="10"/>
 <path d="m236.22 74.83c1.438 1.481 8.671 9.61 6.786 11.503-2.687 2.698-9.716-0.955-11.504-2.655" fill="none" stroke="#000" stroke-linecap="square" stroke-miterlimit="10"/>
 <path d="m221.47 81.91c3.341 4.244 7.518 11.299-1.769 11.798" fill="none" stroke="#000" stroke-linecap="square" stroke-miterlimit="10"/>
 <path d="m230.32 98.427c-3.679-1.619-12.771 1.778-7.08 4.721" fill="none" stroke="#000" stroke-linecap="square" stroke-miterlimit="10"/>
 <path d="m238.583,89.578c-3.556.944-7.914.686-5.605,5.31 1.579,3.163 6.086,3.93 9.143,4.129 1.931.126 7.446.998 8.852.295 2.702-1.352 3.313.659 1.766-2.655-1.957-4.194-9.86-6.945-14.154-6.49" fill="none" stroke="#000" stroke-linecap="square" stroke-miterlimit="10"/>
 <path d="m276.334,16.429c-4.788.364-8.36-.699-12.974,1.181-4.562,1.859-7.758,5.982-11.211,9.437 2.995-4.342 5.145-9.909 9.418-13.108 6.249-4.679 11.846,3.865 14.767,2.49"/>
 <path d="m58.065,43.566c-11.623,3.854-24.654,2.949-36.72,2.949-2.229,0-15.607-2.512-16.373,0-1.113,3.652 10.747,8.228 12.927,9.163 10.654,4.57 20.131,4.857 31.691,3.967 9.858-.759 27.507-1.172 35.614-7.23" fill="none" stroke="#000" stroke-linecap="square" stroke-miterlimit="10"/>
 <path d="m100.54,61.854c-13.761,7.85-32.661,15.703-48.962,13.566-4.649-.609-20.075-7.288-8.849-10.617 3.926-1.164 8.882.139 12.979-.886 4.893-1.223 10.288-1.81 15.336-2.654" fill="none" stroke="#000" stroke-linecap="square" stroke-miterlimit="10"/>
 <path d="m102.902,68.34c-5.995,2.804-11.634,5.252-17.961,7.365-2.767.924-15.652,3.749-16.252,6.796-1.561,7.924 24.429.867 28.315-.591" fill="none" stroke="#000" stroke-linecap="square" stroke-miterlimit="10"/>
 <path d="m121.78 74.24c-5.022 2.509-26.867 8.526-23.597 17.11 3.783 9.93 28.77-2.59 34.214-5.312" fill="none" stroke="#000" stroke-linecap="square" stroke-miterlimit="10"/>
 <path d="m140.07 87.81c-3.75 2.452-24.897 9.715-15.929 14.157 9.202 4.559 25.791-5.275 31.858-11.798" fill="none" stroke="#000" stroke-linecap="square" stroke-miterlimit="10"/>
 <path d="m109.98 25.868c-6.06 4.26-14.515 5.773-21.217 9.133-3.491 1.75-11.666 5.473-3.267 8.269 6.747 2.247 15.697-0.603 22.271-2.249 8.286-2.074 16.828-4.568 24.628-8.077" fill="none" stroke="#000" stroke-linecap="square" stroke-miterlimit="10"/>
 <path d="m122.37 40.616c-6.868 5.304-19.758 4.039-24.778 11.799 11.136 7.731 31.439-5.579 41.294-11.208" fill="none" stroke="#000" stroke-linecap="square" stroke-miterlimit="10"/>
 <path d="m145.96 42.975c-4.73 3.45-33.28 12.729-31.858 19.466 2.284 10.819 29.109-8.133 33.039-10.618" fill="none" stroke="#000" stroke-linecap="square" stroke-miterlimit="10"/>
 <path d="m145.38 58.904c-2.246 2.255-17.306 13.112-12.979 15.926 2.267 1.474 10.994-3.083 12.999-4.587 4-3 7.623-6.006 11.186-9.57" fill="none" stroke="#000" stroke-linecap="square" stroke-miterlimit="10"/>
 <path d="m161.3 64.213c-2.006 3.472-16.481 13.312-12.974 17.107 3.381 3.658 12.896-3.083 15.336-5.899" fill="none" stroke="#000" stroke-linecap="square" stroke-miterlimit="10"/>
 <path d="m172.51 74.24c-1.161 2.326-8.304 8.963-6.487 11.798 1.661 2.591 9.764-1.725 11.798-2.95" fill="none" stroke="#000" stroke-linecap="square" stroke-miterlimit="10"/>
 <path d="m187.26 81.32c-4.654 6.274-5.818 8.841 2.362 11.798" fill="none" stroke="#000" stroke-linecap="square" stroke-miterlimit="10"/>
 <path d="m178.411,97.836c3.473-1.566 13.124.456 7.08,4.721" fill="none" stroke="#000" stroke-linecap="square" stroke-miterlimit="10"/>
 <path d="m170.149,88.988c12.845.478 3.489,9.439-4.422,9.439-3.554,0-12.389,2.07-9.733-2.95 2.139-4.042 10.618-6.226 14.748-5.899" fill="none" stroke="#000" stroke-linecap="square" stroke-miterlimit="10"/>
 <path d="m132.398,15.838c4.677.377 8.987-1.511 13.567.59 4.137,1.897 8.006,6.439 10.618,10.03-1.695-4.085-5.679-11.04-9.437-13.57-5.25-3.533-9.974.224-14.748,2.95"/>
 <path d="m166.024,173.938c-.228-20.349 43.458-17.004 55.39-17.632 18.312-.963 42.982-2.506 56.141-16.98 7.938-8.732 3.562-19.445-2.945-27.571-5.95-7.431-16.818-10.191-25.826-11.994-5.909-1.182-23.126,1.99-25.542,8.696-2.848,7.902 17.938,7.27 22.285,6.961 6.102-.434 14.558-.954 18.422,4.836 4.314,6.466-.542,12.518-5.47,16.74-4.81,4.122-14.052,3.418-20.055,4.356-7.73,1.208-15.353,2.106-23.13,2.885-13.351,1.337-26.24.324-39.548,2.981-13.101,2.617-27.901,13.031-26.832,27.9l17.11-1.178" fill="#fff"/>
 <path d="m166.024,173.938c-.228-20.349 43.458-17.004 55.39-17.632 18.312-.963 42.982-2.506 56.141-16.98 7.938-8.732 3.562-19.445-2.945-27.571-5.95-7.431-16.818-10.191-25.826-11.994-5.909-1.182-23.126,1.99-25.542,8.696-2.848,7.902 17.938,7.27 22.285,6.961 6.102-.434 14.558-.954 18.422,4.836 4.314,6.466-.542,12.518-5.47,16.74-4.81,4.122-14.052,3.418-20.055,4.356-7.73,1.208-15.353,2.106-23.13,2.885-13.351,1.337-26.24.324-39.548,2.981-13.101,2.617-27.901,13.031-26.832,27.9" fill="none" stroke="#000" stroke-linecap="square" stroke-miterlimit="10"/>
 <path d="m194.339,177.475c-.983-45.816-1.966-91.633-2.95-137.45l24.778.591c-.815,26.908-1.632,53.816-2.447,80.725-.475,15.673-.95,31.345-1.425,47.018l-.258,8.491c-.007.253-15.986.568-17.698.625" fill="#fff"/>
 <path d="m194.34 177.48c-0.983-45.816-1.966-91.633-2.95-137.45l24.778 0.591-4.131 136.27" fill="none" stroke="#000" stroke-linecap="square" stroke-miterlimit="10"/>
 <path d="m210.856,222.9c-.599,21.858-1.197,43.716-1.795,65.574-.407,14.841-.813,29.681-1.22,44.521-.077,2.84 1.311,18.639-1.703,19.393-9.942,2.486-7.76-4.269-7.925-11.504-.31-13.5-.62-27-.929-40.5-.577-25.178-1.155-50.355-1.732-75.533-.074-3.209 12.339-1.837 15.304-1.951" fill="#fff"/>
 <path d="m210.856,222.9c-.599,21.858-1.197,43.716-1.795,65.574-.407,14.841-.813,29.681-1.22,44.521-.077,2.84 1.311,18.639-1.703,19.393-9.942,2.486-7.76-4.269-7.925-11.504-.31-13.5-.62-27-.929-40.5-.577-25.178-1.155-50.355-1.732-75.533-.01-.453-.021-.906-.031-1.359" fill="none" stroke="#000" stroke-linecap="square" stroke-miterlimit="10"/>
 <path d="m191.39,48.875c6.379,4.863 17.458,4.604 24.184.59" fill="none" stroke="#000" stroke-linecap="square" stroke-miterlimit="10"/>
 <path d="m203.776,44.744c28.518,1.82 29.358-44.244.918-44.244-13.583,0-21.407,8.878-23.243,21.773-1.306,9.181 12.781,28.051 22.325,22.471" fill="#fff"/>
 <path d="m203.776,44.744c28.518,1.82 29.358-44.244.918-44.244-13.583,0-21.407,8.878-23.243,21.773-1.914,13.445 11.313,21.217 22.324,23.062" fill="none" stroke="#000" stroke-linecap="square" stroke-miterlimit="10"/>
 <path d="m218.524,284.841c3.376-4.057 5.898-10.291 5.898-15.666 0-11.495-6.136-17.088-14.57-23.836-7.648-6.118-16.479-8.208-23.344-16.05-7.9-9.021 2.104-16.503 11.236-18.406 19.458-4.054 44.298-6.512 56.767-23.967 6.36-8.904 7.81-19.147.589-28.317-6.971-8.853-17.88-11.241-28.308-13.139-18.553-3.376-37.721-1.77-56.485-4.702-9.152-1.43-21.011-1.097-25.523-11.065-5.037-11.124 6.856-15.338 15.641-15.338 4.919,0 24.9,3.014 26.247-4.721 1.389-7.982-20.003-10.617-24.606-10.617-19.618,0-39.571,16.324-32.792,36.639 3.045,9.125 17.428,12.95 25.541,14.979 10.292,2.573 20.681,3.52 31.264,4.424 11.864,1.014 54.054-2.269 56.339,15.927 2.611,20.809-37.876,24.347-50.809,27.09-19.301,4.092-36.956,24.387-18.469,41.021 7.924,7.131 18.302,11.481 27.099,17.429 3.254,2.2 6.562,3.964 8.255,7.667 2.073,4.533.814,10.607.594,15.93 3.188.475 7.797,4.688 9.436,4.718" fill="#fff"/>
 <path d="m218.524,284.841c3.376-4.057 5.898-10.291 5.898-15.666 0-11.495-6.136-17.088-14.57-23.836-7.648-6.118-16.479-8.208-23.344-16.05-7.9-9.021 2.104-16.503 11.236-18.406 19.458-4.054 44.298-6.512 56.767-23.967 6.36-8.904 7.81-19.147.589-28.317-6.971-8.853-17.88-11.241-28.308-13.139-18.553-3.376-37.721-1.77-56.485-4.702-9.152-1.43-21.011-1.097-25.523-11.065-5.037-11.124 6.856-15.338 15.641-15.338 4.919,0 24.9,3.014 26.247-4.721 1.389-7.982-20.003-10.617-24.606-10.617-19.618,0-39.571,16.324-32.792,36.639 3.045,9.125 17.428,12.95 25.541,14.979 10.292,2.573 20.681,3.52 31.264,4.424 11.864,1.014 54.054-2.269 56.339,15.927 2.611,20.809-37.876,24.347-50.809,27.09-19.301,4.092-36.956,24.387-18.469,41.021 7.924,7.131 18.302,11.481 27.099,17.429 3.254,2.2 6.562,3.964 8.255,7.667 2.073,4.533.814,10.607.594,15.93 3.484.519 6.735,2.897 9.437,5.309" fill="none" stroke="#000" stroke-linecap="square" stroke-miterlimit="10"/>
 <path d="m207.91 346.19c7.47 3.667 8.742-10.488 3.246-14.156-6.393-4.269-12.44-7.415-17.994-12.98-2.64 4.911-7.164 16.485 0.884 19.174 5.443 1.817 9.036 5.066 13.864 7.962" fill="#fff"/>
 <path d="m207.91 346.19c7.47 3.667 8.742-10.488 3.246-14.156-6.393-4.269-12.44-7.415-17.994-12.98-2.64 4.911-7.164 16.485 0.884 19.174 5.443 1.817 9.036 5.066 13.864 7.962" fill="none" stroke="#000" stroke-linecap="square" stroke-miterlimit="10"/>
 <path d="m167.793,104.326c1.892.81.975-3.348-1.769-.591 1.071,1.217 1.264.755 1.769.591"/>
 <path d="m243.3 105.51c6.382-0.572-5.24-2.137 0 0"/>
 <path d="m219.12 23.509c2.229 6.339-5.438 13.634-10.623 15.926 5.182-0.476 16.92-11.865 10.623-15.926"/>
 <path d="m195.521,223.491c-.306-11.918-.612-23.835-.917-35.753-.023-.881-.575-10.252-.006-10.271l17.439-.579c-.292,11.361-.583,22.723-.875,34.083-.046,1.799 1.012,10.601-.306,11.93-1.76,1.773-12.584.483-15.335.59" fill="#fff"/>
 <path d="m212.04 176.3-1.181 46.603" fill="none" stroke="#000" stroke-linecap="square" stroke-miterlimit="10"/>
 <path d="m195.52 223.49-1.182-46.016" fill="none" stroke="#000" stroke-linecap="square" stroke-miterlimit="10"/>
 <path d="m243.889,222.31c-4.148-20.821-27.517-24.785-45.419-27.726-9.654-1.586-17.187-3.837-24.955-10.05-1.178-.942-7.96-10.564-7.74-10.579l-16.86,1.16c5.833,20.402 25.112,29.041 44.834,32.741 8.27,1.552 19.641,2.057 26.568,7.244 1.752,1.312 6.061,7.799 6.855,7.799 4.243.001 13.867,1.515 16.717-.589" fill="#fff"/>
 <path d="m148.92 175.12c4.857 16.986 18.542 25.69 35.107 30.425 11.65 3.329 38.567 2.805 42.17 17.359" fill="none" stroke="#000" stroke-linecap="square" stroke-miterlimit="10"/>
 <path d="m243.89 222.31c-7.674-38.517-66.472-13.781-77.865-48.372" fill="none" stroke="#000" stroke-linecap="square" stroke-miterlimit="10"/>
 <path d="m208.494,300.77c2.192-5.433-8.601-6.662-12.409-8.566-5.205-2.602-10.063-6.276-13.085-11.315-3.878-6.468 9.156-9.614 13.696-11.976-1.925,4.469.908,6.619 4.724,8.261 5.527,2.378 11.01,3.383 15.923,7.077 3.212,2.415 6.234,6.834 6.493,11.208 .463,7.853-9.256,5.186-15.342,5.311" fill="#fff"/>
 <path d="m223.24 300.18c3.535-7.988-4.126-14.927-10.023-18.288-5.027-2.866-20.208-4.425-16.523-12.979" fill="none" stroke="#000" stroke-linecap="square" stroke-miterlimit="10"/>
 <path d="m208.49 300.77c1.761-4.364-4.98-5.73-8.255-7.08-7.084-2.92-18.063-7.927-18.291-17.106" fill="none" stroke="#000" stroke-linecap="square" stroke-miterlimit="10"/>
 <path d="m184.9 307.85c2.251 12.267 16.965 19.69 27.14 24.778 1.313-2.834 2.95-4.453 2.95-7.965 0-5.727-5.69-6.571-8.853-9.732-2.194-2.195-6.412-2.816-7.961-5.9-1.808-3.598-9.542-1.359-13.276-1.181" fill="#fff"/>
 <path d="m184.9 307.85c2.251 12.267 16.965 19.69 27.14 24.778 2.741-5.918 4.937-10.289-1.769-15.339-4.103-3.09-11.166-4.511-12.979-10.029" fill="none" stroke="#000" stroke-linecap="square" stroke-miterlimit="10"/>
</svg>
